<svg width="40" height="41" viewBox="0 0 40 41" fill="none" xmlns="http://www.w3.org/2000/svg">
<path d="M30.1568 9.64956C27.5392 7.08616 23.9613 5.50629 20.0039 5.50629C11.9961 5.50629 5.49855 11.9961 5.49855 20.0116C5.49855 20.0891 5.50629 20.1665 5.50629 20.2439C4.19748 22.2962 3.63214 24.9835 3.81801 28.2594C3.90319 29.7231 4.12778 31.1791 4.42207 32.5421C1.65731 29.1113 0 24.7512 0 20.0039C0 8.96031 8.95256 0 20.0039 0C25.9671 0 31.3107 2.60987 34.9739 6.7454C33.3708 7.92256 31.7599 8.86738 30.1568 9.64956Z" fill="#09192F"/>
<path d="M5.73855 22.6371C6.24193 25.4019 7.53525 27.8956 9.37068 29.8704C8.85955 30.428 8.42586 31.1018 7.93022 31.9769C7.28743 33.1231 7.00089 34.184 6.92344 35.1366C6.68337 34.9275 6.44329 34.7107 6.21096 34.4861C5.21967 31.0166 4.41425 26.3157 5.73855 22.6371Z" fill="white"/>
<path d="M9.03768 32.5964C9.47137 31.8297 9.83536 31.2412 10.269 30.761C12.8402 33.0921 16.2555 34.5171 20.0038 34.5171C28.0115 34.5171 34.5091 28.0272 34.5091 20.0117C34.5091 19.7562 34.5014 19.5006 34.4859 19.245C35.8954 17.5258 36.7628 15.7291 37.2894 14.1647C37.6301 13.1502 37.8547 12.1744 37.9941 11.276C39.2797 13.9169 39.9999 16.8752 39.9999 20.0117C39.9999 31.0553 31.0474 40.0156 19.9961 40.0156C15.574 40.0156 11.4849 38.5751 8.17031 36.1434C8.09286 34.9662 8.37941 33.7736 9.03768 32.5964Z" fill="#09192F"/>
<path d="M31.0552 10.6177C32.6273 9.82781 34.2072 8.88299 35.787 7.72132C36.1975 8.24794 36.5847 8.7978 36.9409 9.37088C36.817 11.4464 36.2517 14.5287 34.2769 17.4328C33.8122 14.8617 32.6738 12.5306 31.0552 10.6177Z" fill="white"/>
<path d="M7.93809 19.3068C14.4434 13.4675 25.8819 15.7211 36.8868 6.877C36.8868 6.877 38.7222 19.5546 25.0455 23.8915C11.3689 28.2284 10.2692 27.8102 7.93809 31.9845C6.83064 33.9593 6.77643 35.7095 7.01651 37.0028C5.49085 32.7279 3.06684 23.6747 7.93809 19.3068Z" fill="#B8D91C"/>
<path d="M7.93819 39.3186C7.93819 39.3186 7.28766 38.4357 7.0166 36.9953C7.52773 38.428 7.93819 39.3186 7.93819 39.3186Z" fill="#B8D91C"/>
</svg>
