<svg width="17" height="11" viewBox="0 0 17 11" fill="none" xmlns="http://www.w3.org/2000/svg">
<g clip-path="url(#clip0_8262_268)">
<path d="M15.8911 0.915328C15.7585 0.788624 15.601 0.688101 15.4277 0.619515C15.2543 0.550929 15.0685 0.515625 14.8808 0.515625C14.6932 0.515625 14.5073 0.550929 14.334 0.619515C14.1606 0.688101 14.0032 0.788624 13.8706 0.915328L8.31076 6.21838L2.75092 0.915328C2.48299 0.659773 2.1196 0.516204 1.74069 0.516204C1.36178 0.516204 0.99839 0.659773 0.73046 0.915328C0.462531 1.17088 0.312013 1.51749 0.312013 1.8789C0.312013 2.24031 0.462531 2.58691 0.73046 2.84247L7.3077 9.11592C7.44027 9.24263 7.59773 9.34315 7.77108 9.41174C7.94443 9.48032 8.13026 9.51563 8.31793 9.51563C8.5056 9.51563 8.69143 9.48032 8.86478 9.41174C9.03813 9.34315 9.19559 9.24263 9.32816 9.11592L15.9054 2.84247C16.4499 2.3231 16.4499 1.44837 15.8911 0.915328Z" fill="#1C1B1B"/>
</g>
<defs>
<clipPath id="clip0_8262_268">
<rect width="17" height="10" fill="white" transform="translate(0 0.015625)"/>
</clipPath>
</defs>
</svg>
