<svg width="40" height="41" viewBox="0 0 40 41" fill="none" xmlns="http://www.w3.org/2000/svg">
<mask id="mask0_6239_589" style="mask-type:alpha" maskUnits="userSpaceOnUse" x="0" y="0" width="40" height="41">
<rect y="0.015625" width="40" height="40" fill="#D9D9D9"/>
</mask>
<g mask="url(#mask0_6239_589)">
<path d="M3.33325 33.3488V28.3488H6.66659V10.0155C6.66659 9.0988 6.99297 8.31407 7.64575 7.6613C8.29853 7.00852 9.08325 6.68213 9.99992 6.68213H34.9999V10.0155H9.99992V28.3488H19.9999V33.3488H3.33325ZM24.9999 33.3488C24.5277 33.3488 24.1319 33.1891 23.8124 32.8696C23.493 32.5502 23.3333 32.1544 23.3333 31.6821V15.0155C23.3333 14.5432 23.493 14.1474 23.8124 13.828C24.1319 13.5085 24.5277 13.3488 24.9999 13.3488H34.9999C35.4721 13.3488 35.868 13.5085 36.1874 13.828C36.5069 14.1474 36.6666 14.5432 36.6666 15.0155V31.6821C36.6666 32.1544 36.5069 32.5502 36.1874 32.8696C35.868 33.1891 35.4721 33.3488 34.9999 33.3488H24.9999ZM26.6666 28.3488H33.3333V16.6821H26.6666V28.3488Z" fill="#1C1B1B"/>
</g>
</svg>
