<svg width="176" height="41" viewBox="0 0 176 41" fill="none" xmlns="http://www.w3.org/2000/svg">
<path d="M30.1568 9.64956C27.5392 7.08616 23.9613 5.50629 20.0039 5.50629C11.9961 5.50629 5.49855 11.9961 5.49855 20.0116C5.49855 20.0891 5.50629 20.1665 5.50629 20.2439C4.19748 22.2962 3.63214 24.9835 3.81801 28.2594C3.90319 29.7231 4.12778 31.1791 4.42207 32.5421C1.65731 29.1113 0 24.7512 0 20.0039C0 8.96031 8.95256 0 20.0039 0C25.9671 0 31.3107 2.60987 34.9739 6.7454C33.3708 7.92256 31.7599 8.86738 30.1568 9.64956Z" fill="#09192F"/>
<path d="M5.73855 22.6371C6.24193 25.4019 7.53525 27.8956 9.37068 29.8704C8.85955 30.428 8.42586 31.1018 7.93022 31.9769C7.28743 33.1231 7.00089 34.184 6.92344 35.1366C6.68337 34.9275 6.44329 34.7107 6.21096 34.4861C5.21967 31.0166 4.41425 26.3157 5.73855 22.6371Z" fill="white"/>
<path d="M9.03768 32.5964C9.47137 31.8297 9.83536 31.2412 10.269 30.761C12.8402 33.0921 16.2555 34.5171 20.0038 34.5171C28.0115 34.5171 34.5091 28.0272 34.5091 20.0117C34.5091 19.7562 34.5014 19.5006 34.4859 19.245C35.8954 17.5258 36.7628 15.7291 37.2894 14.1647C37.6301 13.1502 37.8547 12.1744 37.9941 11.276C39.2797 13.9169 39.9999 16.8752 39.9999 20.0117C39.9999 31.0553 31.0474 40.0156 19.9961 40.0156C15.574 40.0156 11.4849 38.5751 8.17031 36.1434C8.09286 34.9662 8.37941 33.7736 9.03768 32.5964Z" fill="#09192F"/>
<path d="M31.0552 10.6177C32.6273 9.82781 34.2072 8.88299 35.787 7.72132C36.1975 8.24794 36.5847 8.7978 36.9409 9.37088C36.817 11.4464 36.2517 14.5287 34.2769 17.4328C33.8122 14.8617 32.6738 12.5306 31.0552 10.6177Z" fill="white"/>
<path d="M7.93809 19.3068C14.4434 13.4675 25.8819 15.7211 36.8868 6.877C36.8868 6.877 38.7222 19.5546 25.0455 23.8915C11.3689 28.2284 10.2692 27.8102 7.93809 31.9845C6.83064 33.9593 6.77643 35.7095 7.01651 37.0028C5.49085 32.7279 3.06684 23.6747 7.93809 19.3068Z" fill="#B8D91C"/>
<path d="M7.93819 39.3186C7.93819 39.3186 7.28766 38.4357 7.0166 36.9953C7.52773 38.428 7.93819 39.3186 7.93819 39.3186Z" fill="#B8D91C"/>
<line x1="52.5" y1="2.18557e-08" x2="52.5" y2="40.0155" stroke="#DDDDDD"/>
<path d="M67.7793 13.7109V26.5077H65.1426V13.7109H67.7793ZM72.877 19.1777V21.2343H67.0586V19.1777H72.877ZM73.4922 13.7109V15.7763H67.0586V13.7109H73.4922ZM76.8215 13.7109H81.5939C82.5725 13.7109 83.4133 13.8574 84.1164 14.1503C84.8254 14.4433 85.3703 14.8769 85.7512 15.4511C86.132 16.0253 86.3225 16.7314 86.3225 17.5693C86.3225 18.2548 86.2053 18.8437 85.9709 19.3359C85.7424 19.8222 85.4172 20.2294 84.9953 20.5575C84.5793 20.8798 84.09 21.1376 83.5275 21.331L82.6926 21.7704H78.5441L78.5266 19.7138H81.6115C82.0744 19.7138 82.4582 19.6318 82.7629 19.4677C83.0676 19.3036 83.2961 19.0751 83.4484 18.7822C83.6066 18.4892 83.6857 18.1493 83.6857 17.7626C83.6857 17.3525 83.6096 16.998 83.4572 16.6992C83.3049 16.4003 83.0734 16.1718 82.7629 16.0136C82.4523 15.8554 82.0627 15.7763 81.5939 15.7763H79.4582V26.5077H76.8215V13.7109ZM83.9758 26.5077L81.0578 20.8036L83.8439 20.7861L86.7971 26.3847V26.5077H83.9758ZM98.7396 24.4511V26.5077H91.9281V24.4511H98.7396ZM92.7895 13.7109V26.5077H90.1527V13.7109H92.7895ZM97.852 18.9228V20.9267H91.9281V18.9228H97.852ZM98.7309 13.7109V15.7763H91.9281V13.7109H98.7309ZM108.74 23.1591C108.74 22.9306 108.705 22.7255 108.634 22.5439C108.57 22.3564 108.447 22.1865 108.265 22.0341C108.084 21.8759 107.829 21.7206 107.501 21.5683C107.172 21.4159 106.748 21.2577 106.226 21.0937C105.646 20.9062 105.095 20.6952 104.574 20.4609C104.058 20.2265 103.601 19.954 103.203 19.6435C102.81 19.3271 102.5 18.9609 102.271 18.5449C102.048 18.1288 101.937 17.6454 101.937 17.0947C101.937 16.5615 102.054 16.0781 102.289 15.6445C102.523 15.205 102.851 14.83 103.273 14.5195C103.695 14.2031 104.193 13.9599 104.767 13.79C105.347 13.62 105.983 13.5351 106.674 13.5351C107.618 13.5351 108.441 13.705 109.144 14.0449C109.847 14.3847 110.392 14.8505 110.779 15.4423C111.171 16.0341 111.368 16.7109 111.368 17.4726H108.749C108.749 17.0976 108.67 16.7695 108.511 16.4882C108.359 16.2011 108.125 15.9755 107.808 15.8115C107.498 15.6474 107.105 15.5654 106.63 15.5654C106.173 15.5654 105.793 15.6357 105.488 15.7763C105.183 15.9111 104.955 16.0956 104.802 16.33C104.65 16.5585 104.574 16.8163 104.574 17.1034C104.574 17.3202 104.627 17.5165 104.732 17.6923C104.843 17.8681 105.007 18.0322 105.224 18.1845C105.441 18.3368 105.708 18.4804 106.024 18.6152C106.34 18.7499 106.707 18.8818 107.123 19.0107C107.82 19.2216 108.432 19.4589 108.96 19.7226C109.493 19.9863 109.938 20.2822 110.296 20.6103C110.653 20.9384 110.922 21.3105 111.104 21.7265C111.286 22.1425 111.377 22.6142 111.377 23.1415C111.377 23.6982 111.268 24.1962 111.051 24.6357C110.835 25.0751 110.521 25.4472 110.111 25.7519C109.701 26.0566 109.212 26.288 108.643 26.4462C108.075 26.6044 107.439 26.6835 106.736 26.6835C106.103 26.6835 105.479 26.6015 104.864 26.4374C104.249 26.2675 103.689 26.0126 103.185 25.6728C102.687 25.3329 102.289 24.8993 101.99 24.372C101.691 23.8447 101.542 23.2206 101.542 22.4999H104.187C104.187 22.8984 104.249 23.2353 104.372 23.5107C104.495 23.7861 104.668 24.0087 104.89 24.1786C105.119 24.3486 105.388 24.4716 105.699 24.5478C106.015 24.624 106.361 24.662 106.736 24.662C107.193 24.662 107.568 24.5976 107.861 24.4687C108.16 24.3398 108.379 24.1611 108.52 23.9325C108.667 23.704 108.74 23.4462 108.74 23.1591ZM123.504 18.9228V20.9794H116.824V18.9228H123.504ZM117.606 13.7109V26.5077H114.97V13.7109H117.606ZM125.385 13.7109V26.5077H122.757V13.7109H125.385ZM136.896 22.2626H139.524C139.472 23.124 139.234 23.8886 138.812 24.5566C138.396 25.2245 137.813 25.746 137.063 26.121C136.319 26.496 135.423 26.6835 134.374 26.6835C133.554 26.6835 132.818 26.5429 132.168 26.2617C131.518 25.9745 130.961 25.5644 130.498 25.0312C130.041 24.498 129.692 23.8534 129.452 23.0976C129.212 22.3417 129.092 21.495 129.092 20.5575V19.6699C129.092 18.7324 129.215 17.8857 129.461 17.1298C129.713 16.3681 130.07 15.7206 130.533 15.1874C131.002 14.6542 131.562 14.2441 132.212 13.957C132.862 13.6699 133.589 13.5263 134.392 13.5263C135.458 13.5263 136.357 13.7197 137.09 14.1064C137.828 14.4931 138.399 15.0263 138.804 15.706C139.214 16.3857 139.46 17.1591 139.542 18.0263H136.905C136.876 17.5107 136.773 17.0742 136.598 16.7167C136.422 16.3534 136.155 16.081 135.798 15.8993C135.446 15.7118 134.978 15.6181 134.392 15.6181C133.952 15.6181 133.568 15.7001 133.24 15.8642C132.912 16.0283 132.637 16.2773 132.414 16.6113C132.191 16.9452 132.024 17.3671 131.913 17.8769C131.808 18.3808 131.755 18.9726 131.755 19.6523V20.5575C131.755 21.2197 131.805 21.8027 131.904 22.3066C132.004 22.8046 132.156 23.2265 132.361 23.5722C132.572 23.912 132.842 24.1699 133.17 24.3456C133.504 24.5156 133.905 24.6005 134.374 24.6005C134.925 24.6005 135.379 24.5126 135.736 24.3368C136.094 24.1611 136.366 23.9003 136.554 23.5546C136.747 23.2089 136.861 22.7783 136.896 22.2626ZM151.643 24.4511V26.5077H144.831V24.4511H151.643ZM145.693 13.7109V26.5077H143.056V13.7109H145.693ZM150.755 18.9228V20.9267H144.831V18.9228H150.755ZM151.634 13.7109V15.7763H144.831V13.7109H151.634ZM163.207 24.4511V26.5077H156.765V24.4511H163.207ZM157.618 13.7109V26.5077H154.981V13.7109H157.618ZM174.746 24.4511V26.5077H168.303V24.4511H174.746ZM169.156 13.7109V26.5077H166.519V13.7109H169.156Z" fill="#1C1B1B"/>
</svg>
