<svg width="46" height="30" viewBox="0 0 46 30" fill="none" xmlns="http://www.w3.org/2000/svg">
<g clip-path="url(#clip0_6242_516)">
<path d="M29.219 3.11621H16.7812V25.9134H29.219V3.11621Z" fill="#FF5F00"/>
<path d="M17.5707 14.5151C17.5707 10.0845 19.5844 5.85535 22.9801 3.11646C16.8205 -1.83771 7.89686 -0.750206 3.04021 5.5734C-1.81644 11.8567 -0.750346 20.9595 5.4488 25.9137C10.6213 30.0623 17.8471 30.0623 23.0196 25.9137C19.5844 23.1748 17.5707 18.9456 17.5707 14.5151Z" fill="#EB001B"/>
<path d="M46.0003 14.5151C46.0003 22.5303 39.6432 29.0151 31.7857 29.0151C28.5874 29.0151 25.5076 27.9276 23.02 25.9137C29.1797 20.9595 30.2458 11.8567 25.3891 5.53313C24.6784 4.64702 23.8887 3.80118 23.02 3.11646C29.1797 -1.83771 38.1428 -0.750206 42.9599 5.5734C44.9342 8.1109 46.0003 11.2526 46.0003 14.5151Z" fill="#F79E1B"/>
<path d="M44.6575 23.4975V23.0141H44.8549V22.9336H44.3811V23.0141H44.5785V23.4975H44.6575ZM45.5657 23.4975V22.9336H45.4077L45.2498 23.3364L45.0918 22.9336H44.9339V23.4975H45.0523V23.0544L45.2103 23.4169H45.3287L45.4867 23.0544V23.4975H45.5657Z" fill="#F79E1B"/>
</g>
<defs>
<clipPath id="clip0_6242_516">
<rect width="46" height="29" fill="white" transform="translate(0 0.015625)"/>
</clipPath>
</defs>
</svg>
