<svg width="75" height="22" viewBox="0 0 75 22" fill="none" xmlns="http://www.w3.org/2000/svg">
<g clip-path="url(#clip0_6242_523)">
<path fill-rule="evenodd" clip-rule="evenodd" d="M20.2101 0.0156254V0.0247957C20.2009 0.0247957 17.2806 0.0156253 16.5019 2.77589C15.788 5.30689 13.7763 12.2947 13.7206 12.4872H13.1644C13.1644 12.4872 11.1063 5.34357 10.3832 2.76672C9.60445 0.00645501 6.67491 0.0156254 6.67491 0.0156254H0V21.0156H6.67491V8.54401H7.23115L11.1248 21.0156H15.7602L19.6539 8.55318H20.2101V21.0156H26.885V0.0156254H20.2101Z" fill="#4DB45E"/>
<path fill-rule="evenodd" clip-rule="evenodd" d="M44.5922 0.015625C44.5922 0.015625 42.636 0.189861 41.7182 2.2165L36.9902 12.4872H36.4339V0.015625H29.759V21.0156H36.0631C36.0631 21.0156 38.1119 20.8322 39.0297 18.8148L43.6651 8.54401H44.2213V21.0156H50.8962V0.015625H44.5922Z" fill="#4DB45E"/>
<path fill-rule="evenodd" clip-rule="evenodd" d="M53.8628 9.55273V21.0156H60.5377V14.3213H67.7688C70.9209 14.3213 73.5909 12.3313 74.5828 9.55273H53.8628Z" fill="#4DB45E"/>
<path fill-rule="evenodd" clip-rule="evenodd" d="M67.7689 0.015625H52.9265C53.6682 4.01388 56.6997 7.22348 60.6212 8.2689C61.5112 8.50733 62.4475 8.63571 63.4117 8.63571H74.8517C74.9537 8.15886 75.0001 7.67283 75.0001 7.16846C75.0001 3.21606 71.7646 0.015625 67.7689 0.015625Z" fill="url(#paint0_linear_6242_523)"/>
</g>
<defs>
<linearGradient id="paint0_linear_6242_523" x1="52.9283" y1="4.32567" x2="75.0001" y2="4.32567" gradientUnits="userSpaceOnUse">
<stop offset="0.3" stop-color="#00B4E6"/>
<stop offset="1" stop-color="#088CCB"/>
</linearGradient>
<clipPath id="clip0_6242_523">
<rect width="75" height="21" fill="white" transform="translate(0 0.015625)"/>
</clipPath>
</defs>
</svg>
