<svg width="40" height="40" viewBox="0 0 40 40" fill="none" xmlns="http://www.w3.org/2000/svg">
<mask id="mask0_6239_2413" style="mask-type:alpha" maskUnits="userSpaceOnUse" x="0" y="0" width="40" height="40">
<rect width="40" height="40" fill="#D9D9D9"/>
</mask>
<g mask="url(#mask0_6239_2413)">
<path d="M11.6668 38.3332C10.7502 38.3332 9.96544 38.0068 9.31266 37.354C8.65989 36.7012 8.3335 35.9165 8.3335 34.9998V4.99984C8.3335 4.08317 8.65989 3.29845 9.31266 2.64567C9.96544 1.99289 10.7502 1.6665 11.6668 1.6665H28.3335C29.2502 1.6665 30.0349 1.99289 30.6877 2.64567C31.3404 3.29845 31.6668 4.08317 31.6668 4.99984V34.9998C31.6668 35.9165 31.3404 36.7012 30.6877 37.354C30.0349 38.0068 29.2502 38.3332 28.3335 38.3332H11.6668ZM11.6668 33.3332V34.9998H28.3335V33.3332H11.6668ZM11.6668 29.9998H28.3335V9.99984H11.6668V29.9998ZM11.6668 6.6665H28.3335V4.99984H11.6668V6.6665Z" fill="#1C1B1B"/>
</g>
</svg>
