<svg width="70" height="22" viewBox="0 0 70 22" fill="none" xmlns="http://www.w3.org/2000/svg">
<g clip-path="url(#clip0_6242_514)">
<path d="M45.6081 0.015625C40.6443 0.015625 36.1876 2.4121 36.1876 6.80974C36.1876 11.8744 44.0602 12.2203 44.0602 14.7403C44.0602 15.8027 42.7259 16.7662 40.4842 16.7662C37.2817 16.7662 34.8799 15.4321 34.8799 15.4321L33.8658 19.8792C33.8658 19.8792 36.6146 21.0156 40.2974 21.0156C45.7415 21.0156 50.0114 18.5203 50.0114 14.0239C50.0114 8.68739 42.1121 8.34151 42.1121 5.99445C42.1121 5.15445 43.2063 4.24033 45.448 4.24033C47.9832 4.24033 50.0648 5.20386 50.0648 5.20386L51.0789 0.905037C51.0522 0.905037 48.7838 0.015625 45.6081 0.015625ZM0.133435 0.336801L0 0.979154C0 0.979154 2.08159 1.32504 3.97636 2.04151C6.40488 2.8568 6.565 3.32621 6.99199 4.78386L11.4487 20.6697H17.4266L26.5803 0.336801H20.6291L14.7312 14.1721L12.3294 2.4368C12.1159 1.10268 10.995 0.336801 9.60732 0.336801H0.133435ZM28.9821 0.336801L24.3119 20.6697H29.9962L34.6397 0.336801H28.9821ZM60.6329 0.336801C59.2718 0.336801 58.5513 1.00386 58.0175 2.18974L49.6912 20.6697H55.6424L56.7899 17.5815H64.0488L64.7427 20.6697H70L65.4365 0.336801H60.6329ZM61.4068 5.84621L63.1681 13.4803H58.4445L61.4068 5.84621Z" fill="#1434CB"/>
</g>
<defs>
<clipPath id="clip0_6242_514">
<rect width="70" height="21" fill="white" transform="translate(0 0.015625)"/>
</clipPath>
</defs>
</svg>
